<?xml version="1.0" standalone="no"?>
<!DOCTYPE svg PUBLIC "-//W3C//DTD SVG 20010904//EN"
 "http://www.w3.org/TR/2001/REC-SVG-20010904/DTD/svg10.dtd">
<svg version="1.0" xmlns="http://www.w3.org/2000/svg"
 width="700.000000pt" height="700.000000pt" viewBox="0 0 700.000000 700.000000"
 preserveAspectRatio="xMidYMid meet">
<metadata>
Created by potrace 1.11, written by Peter Selinger 2001-2013
</metadata>
<g transform="translate(0.000000,700.000000) scale(0.100000,-0.100000)"
fill="#000000" stroke="none">
<path d="M3827 6416 c-68 -20 -115 -86 -110 -156 1 -31 14 -146 18 -170 3 -14
7 -47 10 -75 11 -107 16 -151 20 -165 2 -8 7 -38 10 -66 6 -54 6 -54 29 -159
39 -176 67 -216 99 -137 16 41 51 214 62 307 4 32 8 66 10 75 2 9 6 47 9 85 6
62 11 107 22 210 8 70 5 155 -6 175 -33 61 -108 94 -173 76z"/>
<path d="M2935 6180 c-62 -19 -111 -101 -99 -165 6 -37 23 -62 159 -245 258
-346 415 -503 415 -416 0 58 -84 295 -172 486 -12 25 -32 70 -45 100 -90 202
-116 235 -190 244 -21 3 -52 1 -68 -4z"/>
<path d="M4709 6180 c-63 -18 -83 -45 -139 -175 -12 -27 -28 -63 -35 -80 -81
-176 -172 -424 -195 -528 -12 -50 -11 -60 2 -73 14 -14 21 -10 74 43 33 32 73
74 89 93 109 126 373 498 385 541 11 38 1 85 -25 125 -28 43 -104 70 -156 54z"/>
<path d="M1624 5570 c-87 -20 -205 -116 -221 -180 -3 -14 -10 -31 -16 -38 -11
-14 -14 -131 -5 -173 11 -45 55 -123 90 -156 18 -17 78 -57 133 -89 120 -68
318 -198 435 -284 115 -85 350 -273 394 -315 12 -11 37 -33 56 -49 56 -46 184
-163 294 -267 55 -53 153 -140 215 -194 149 -126 179 -154 406 -380 167 -166
297 -304 387 -409 14 -17 40 -46 56 -64 43 -48 91 -142 103 -204 32 -160 -11
-301 -125 -413 -59 -57 -117 -91 -196 -112 -50 -13 -165 -20 -199 -11 -10 2
-14 -14 -15 -72 -7 -262 -206 -451 -467 -445 l-76 3 0 -77 c0 -82 -4 -104 -26
-167 -46 -126 -161 -234 -287 -271 -30 -8 -57 -17 -59 -19 -5 -4 26 -33 99
-92 25 -20 50 -42 55 -48 6 -6 26 -22 45 -34 19 -13 37 -27 40 -30 14 -15 175
-114 245 -150 73 -37 217 -97 255 -106 8 -2 40 -10 70 -18 128 -34 233 -45
390 -40 145 4 150 5 255 28 229 49 459 150 685 299 41 27 77 53 80 56 3 4 25
22 50 41 92 72 215 206 279 305 44 68 95 176 120 255 22 68 23 74 36 150 11
66 13 240 3 311 -30 224 -131 477 -293 734 -30 49 -53 96 -51 104 3 9 8 40 11
70 7 57 9 67 25 146 6 28 12 61 15 75 22 117 113 344 180 450 103 165 270 328
455 445 137 87 201 175 202 277 1 71 -5 98 -38 158 -52 96 -116 142 -232 170
-66 15 -234 8 -317 -15 -201 -54 -491 -284 -684 -540 -114 -151 -188 -225
-264 -263 -96 -48 -145 -55 -229 -34 -59 15 -86 37 -251 197 -84 83 -185 179
-223 214 -38 35 -92 84 -119 110 -463 426 -1186 952 -1566 1138 -49 24 -151
36 -205 23z"/>
<path d="M2315 4035 c-147 -44 -238 -166 -231 -312 7 -126 41 -175 215 -308
75 -57 150 -116 166 -130 17 -15 52 -45 80 -68 136 -115 415 -392 585 -582
218 -244 245 -263 378 -271 75 -4 137 17 205 70 108 82 144 243 83 372 -51
105 -553 633 -832 874 -46 39 -146 123 -168 140 -10 8 -33 26 -50 40 -46 38
-166 124 -206 147 -62 37 -157 48 -225 28z"/>
<path d="M1815 3465 c-60 -17 -96 -39 -138 -82 -98 -97 -119 -243 -54 -366 24
-45 62 -83 145 -144 109 -80 231 -181 362 -298 67 -60 388 -381 449 -450 214
-238 260 -270 391 -270 96 0 147 19 211 77 112 103 133 275 48 400 -68 100
-581 623 -769 784 -218 187 -371 302 -445 335 -55 24 -145 31 -200 14z"/>
<path d="M1367 2833 c-69 -23 -144 -94 -178 -168 -37 -80 -35 -185 5 -260 35
-67 46 -79 156 -164 52 -41 131 -106 175 -145 44 -39 98 -87 120 -106 65 -58
323 -318 430 -435 55 -60 114 -123 130 -140 154 -156 411 -114 506 83 18 37
23 65 23 132 1 120 -10 139 -182 330 -169 187 -516 526 -662 646 -19 16 -44
37 -55 47 -59 54 -215 163 -257 179 -59 22 -146 22 -211 1z"/>
</g>
</svg>
